<svg xmlns="http://www.w3.org/2000/svg" viewBox="0 0 17.95607 15.71114"><title>api2-icon3</title><path d="M17.95607,1.85877a6.83343,6.83343,0,0,1-2.11923.62448A3.93942,3.93942,0,0,0,17.46219.29255a7.38948,7.38948,0,0,1-2.34415.96433A3.55211,3.55211,0,0,0,12.43076,0,3.83143,3.83143,0,0,0,8.74717,3.96674a4.33925,4.33925,0,0,0,.093.89917A10.228,10.228,0,0,1,1.24782.72809,4.18256,4.18256,0,0,0,.75124,2.72168a4.02645,4.02645,0,0,0,1.63965,3.295,3.48252,3.48252,0,0,1-1.669-.49326v.05417A3.91472,3.91472,0,0,0,3.67638,9.46647a3.46858,3.46858,0,0,1-.97311.13088A2.92409,2.92409,0,0,1,2.01448,9.527a3.7127,3.7127,0,0,0,3.4402,2.75361,7.0374,7.0374,0,0,1-4.575,1.69687A6.72437,6.72437,0,0,1,0,13.92214a9.85414,9.85414,0,0,0,5.64739,1.789c6.7751,0,10.48228-6.045,10.48228-11.28549,0-.16743-.00383-.33738-.0121-.50728A8.02774,8.02774,0,0,0,17.95607,1.85877Z" style="fill:#ff9792"/></svg>