<svg xmlns="http://www.w3.org/2000/svg" viewBox="0 0 17.99786 17.99669"><title>api2-icon4</title><path d="M8.99875,1.62044c2.40328,0,2.68694.00851,3.63652.05118a5.019,5.019,0,0,1,1.671.30929,2.82887,2.82887,0,0,1,1.03418.67407,2.7863,2.7863,0,0,1,.67334,1.03665,4.93894,4.93894,0,0,1,.31,1.66951c.04333.95132.0522,1.23433.0522,3.63615,0,2.40466-.00887,2.68767-.0522,3.63688a4.96337,4.96337,0,0,1-.31,1.67162,2.98357,2.98357,0,0,1-1.70752,1.70788,5.0159,5.0159,0,0,1-1.671.31c-.94958.04266-1.23324.05118-3.63652.05118-2.404,0-2.68767-.00852-3.63688-.05118a5.01494,5.01494,0,0,1-1.67089-.31,2.80782,2.80782,0,0,1-1.03491-.67334,2.78331,2.78331,0,0,1-.673-1.03454,5.00266,5.00266,0,0,1-.31039-1.67162c-.0423-.94921-.05264-1.23222-.05264-3.63688,0-2.40182.01034-2.68483.05264-3.63615A5.00655,5.00655,0,0,1,1.9831,3.68952a2.79442,2.79442,0,0,1,.673-1.03454A2.84563,2.84563,0,0,1,3.691,1.98091a4.97769,4.97769,0,0,1,1.67089-.30718c.94921-.04478,1.2336-.05329,3.63688-.05329M8.99875,0C6.555,0,6.24817.0099,5.28826.0533a6.63866,6.63866,0,0,0-2.185.41741,4.44769,4.44769,0,0,0-1.59371,1.038A4.43964,4.43964,0,0,0,.4718,3.10144,6.60471,6.60471,0,0,0,.05337,5.28717C.00961,6.24708,0,6.55419,0,8.99729c0,2.44449.00961,2.74883.05337,3.71158A6.61473,6.61473,0,0,0,.4718,14.89379a4.42981,4.42981,0,0,0,1.03775,1.59343,4.4471,4.4471,0,0,0,1.59371,1.03811,6.56785,6.56785,0,0,0,2.185.41668c.95991.04551,1.26673.05468,3.71049.05468s2.74956-.00917,3.70976-.05468a6.58952,6.58952,0,0,0,2.18391-.41668,4.59619,4.59619,0,0,0,2.63189-2.63154,6.606,6.606,0,0,0,.41953-2.18492c.04369-.96275.054-1.26709.054-3.71158,0-2.4431-.01033-2.75021-.054-3.71012a6.59242,6.59242,0,0,0-.41953-2.18573,4.42005,4.42005,0,0,0-1.037-1.59269,4.424,4.424,0,0,0-1.59488-1.038A6.625,6.625,0,0,0,12.70851.0533C11.74831.0099,11.44258,0,8.99875,0Z" style="fill:#ff9792"/><path d="M8.99875,4.37778a4.6206,4.6206,0,1,0,4.62133,4.61951A4.6207,4.6207,0,0,0,8.99875,4.37778m0,7.62142a3.00049,3.00049,0,1,1,3.00017-3.00191A3.00213,3.00213,0,0,1,8.99875,11.9992Z" style="fill:#ff9792"/><path d="M14.88179,4.19219a1.08006,1.08006,0,1,1-1.07932-1.07648,1.08245,1.08245,0,0,1,1.07932,1.07648" style="fill:#ff9792"/></svg>