<svg xmlns="http://www.w3.org/2000/svg" viewBox="0 0 17.87846 12.33204"><title>api2-icon2</title><path d="M17.571,1.93214a1.56038,1.56038,0,0,0-.04245-.2c-.00813-.03039-.0173-.06149-.02755-.09152A1.71113,1.71113,0,0,0,15.88091.47574h.11738A54.18654,54.18654,0,0,0,8.9392,0,54.19265,54.19265,0,0,0,1.88011.47574h.11768A1.71164,1.71164,0,0,0,.37741,1.64058c-.00983.03-.01905.06113-.02785.09152a1.67036,1.67036,0,0,0-.04173.2A33.59329,33.59329,0,0,0,0,6.16563a33.60678,33.60678,0,0,0,.30783,4.23391,1.66474,1.66474,0,0,0,.04173.19967c.0088.03147.018.06113.02785.09188A1.71081,1.71081,0,0,0,1.99779,11.856H1.88011a54.15545,54.15545,0,0,0,7.05909.476,54.14935,54.14935,0,0,0,7.05909-.476h-.11738a1.71031,1.71031,0,0,0,1.62008-1.1649c.01025-.03075.01942-.06041.02755-.09188a1.55513,1.55513,0,0,0,.04245-.19967,33.63581,33.63581,0,0,0,.30747-4.23391A33.62231,33.62231,0,0,0,17.571,1.93214ZM11.587,6.5484l-3.60973,2.622a.433.433,0,0,1-.2552.08337.44706.44706,0,0,1-.1972-.047.43655.43655,0,0,1-.23712-.388V3.57586a.43394.43394,0,0,1,.68952-.352L11.587,5.84513a.43514.43514,0,0,1,0,.70327Z" style="fill:#ff9792"/></svg>