<svg xmlns="http://www.w3.org/2000/svg" viewBox="0 0 41.11666 31.37766"><title>cs-blinklines</title><line x1="19.45989" y1="11.70783" x2="18.4658" y2="0.5" style="fill:none;stroke:#212121;stroke-linecap:round;stroke-linejoin:round"/><line x1="23.14662" y1="11.79136" x2="24.78326" y2="8.00438" style="fill:none;stroke:#212121;stroke-linecap:round;stroke-linejoin:round"/><line x1="25.60158" y1="6.1109" x2="26.4199" y2="4.21741" style="fill:none;stroke:#212121;stroke-linecap:round;stroke-linejoin:round"/><line x1="15.84542" y1="12.43895" x2="13.56779" y2="8.99916" style="fill:none;stroke:#212121;stroke-linecap:round;stroke-linejoin:round"/><line x1="12.42898" y1="7.27926" x2="11.29016" y2="5.55936" style="fill:none;stroke:#212121;stroke-linecap:round;stroke-linejoin:round"/><line x1="11.68743" y1="22.59467" x2="0.5" y2="23.79763" style="fill:none;stroke:#212121;stroke-linecap:round;stroke-linejoin:round"/><line x1="12.48577" y1="26.19488" x2="9.089" y2="28.53627" style="fill:none;stroke:#212121;stroke-linecap:round;stroke-linejoin:round"/><line x1="7.39061" y1="29.70697" x2="5.69223" y2="30.87766" style="fill:none;stroke:#212121;stroke-linecap:round;stroke-linejoin:round"/><line x1="11.70224" y1="18.90702" x2="7.8854" y2="17.3413" style="fill:none;stroke:#212121;stroke-linecap:round;stroke-linejoin:round"/><line x1="5.97698" y1="16.55844" x2="4.06856" y2="15.77557" style="fill:none;stroke:#212121;stroke-linecap:round;stroke-linejoin:round"/><line x1="29.40874" y1="20.85614" x2="40.61666" y2="19.86203" style="fill:none;stroke:#212121;stroke-linecap:round;stroke-linejoin:round"/><line x1="29.32527" y1="24.54286" x2="33.1123" y2="26.17949" style="fill:none;stroke:#212121;stroke-linecap:round;stroke-linejoin:round"/><line x1="35.00582" y1="26.99781" x2="36.89933" y2="27.81612" style="fill:none;stroke:#212121;stroke-linecap:round;stroke-linejoin:round"/><line x1="28.67757" y1="17.24168" x2="32.11736" y2="14.96405" style="fill:none;stroke:#212121;stroke-linecap:round;stroke-linejoin:round"/><line x1="33.83726" y1="13.82524" x2="35.55715" y2="12.68642" style="fill:none;stroke:#212121;stroke-linecap:round;stroke-linejoin:round"/></svg>