<svg xmlns="http://www.w3.org/2000/svg" viewBox="0 0 66.76243 85.36901"><title>cs-device2</title><path d="M9.42948,2.99379h47.903a5.17139,5.17139,0,0,1,5.17139,5.17139V77.20428A5.17094,5.17094,0,0,1,57.333,82.37522H9.42971a5.17117,5.17117,0,0,1-5.17117-5.17117V8.16473A5.17094,5.17094,0,0,1,9.42948,2.99379Z" transform="translate(5.05509 -3.50968) rotate(6.51053)" style="fill:#fff"/><path d="M9.42948,2.99379h47.903a5.17139,5.17139,0,0,1,5.17139,5.17139V77.20428A5.17094,5.17094,0,0,1,57.333,82.37522H9.42971a5.17117,5.17117,0,0,1-5.17117-5.17117V8.16473A5.17094,5.17094,0,0,1,9.42948,2.99379Z" transform="translate(5.05509 -3.50968) rotate(6.51053)" style="fill:none;stroke:#212121;stroke-linecap:round;stroke-linejoin:round"/><rect x="11.20077" y="9.46971" width="46.09067" height="47.38938" transform="translate(3.98122 -3.66915) rotate(6.51053)" style="fill:none;stroke:#212121;stroke-linecap:round;stroke-linejoin:round"/><line x1="7.92603" y1="60.54856" x2="43.82378" y2="64.64527" style="fill:none;stroke:#212121;stroke-linecap:round;stroke-linejoin:round"/><line x1="6.55818" y1="73.11841" x2="42.45593" y2="77.21512" style="fill:none;stroke:#212121;stroke-linecap:round;stroke-linejoin:round"/><line x1="7.25591" y1="66.42049" x2="50.39134" y2="71.34318" style="fill:none;stroke:#212121;stroke-linecap:round;stroke-linejoin:round"/><path d="M34.246,16.34785h0a16.8166,16.8166,0,0,1,16.8166,16.8166v.0001a16.8164,16.8164,0,0,1-16.8164,16.8164h0A16.81662,16.81662,0,0,1,17.42959,33.16432v0A16.81642,16.81642,0,0,1,34.246,16.34785Z" transform="translate(41.30858 -13.98213) rotate(54.43879)" style="fill:#ffcc80;opacity:0.5"/><path d="M30.63169,28.8a4.28324,4.28324,0,1,1,5.10664,4.89244,2.36907,2.36907,0,0,0-1.896,1.90169l-.39776,2.39273" style="fill:none;stroke:#212121;stroke-linecap:round;stroke-linejoin:round"/><circle cx="32.7609" cy="42.09927" r="1.28943" style="fill:#212121"/></svg>