<svg xmlns="http://www.w3.org/2000/svg" viewBox="0 0 67.89597 72.97093"><title>cs-hand2</title><path d="M65.3903,20.36248a3.19088,3.19088,0,0,0-3.18154-3.18154L50.99482,17.181v-.00006H43.18845V3.8904A3.48866,3.48866,0,0,0,39.71.412H35.98418V31.70386L.47233,60.962,16.05645,71.23281,50.99482,40.81465l-.16871.50222,7.56863-.50236c1.74986,0,2.49634.387,2.49634-1.36285a3.19085,3.19085,0,0,0-3.18047-3.18143h1.67326a3.18154,3.18154,0,0,0,0-6.36308l-8.38905,0v-.0001L61.12608,29.907a3.18149,3.18149,0,0,0,.001-6.363h1.08172A3.19088,3.19088,0,0,0,65.3903,20.36248Z" style="fill:#fff"/><path d="M49.90142,23.57863H63.14153a3.1742,3.1742,0,0,1,3.1742,3.1742v0A3.17419,3.17419,0,0,1,63.14153,29.927H46.72722a0,0,0,0,1,0,0v-3.1742A3.1742,3.1742,0,0,1,49.90142,23.57863Z" style="fill:#ffcdd2"/><path d="M49.90143,29.92719H61.40336a3.17418,3.17418,0,0,1,3.17418,3.17418v0a3.17421,3.17421,0,0,1-3.17421,3.17421H46.72722a0,0,0,0,1,0,0V33.1014a3.17421,3.17421,0,0,1,3.17421-3.17421Z" style="fill:#ffcdd2"/><path d="M49.90142,36.27552h9.8315a3.1742,3.1742,0,0,1,3.1742,3.1742v0a3.1742,3.1742,0,0,1-3.1742,3.1742H46.72722a0,0,0,0,1,0,0v-3.1742A3.1742,3.1742,0,0,1,49.90142,36.27552Z" style="fill:#ffcdd2"/><path d="M65.39031,23.38839A3.00107,3.00107,0,0,0,62.398,20.3961l-10.54691,0v0h-7.342v-12.5a3.28114,3.28114,0,0,0-3.27156-3.27147H37.73334V34.05516L4.33383,61.5729,18.991,71.2328,51.85111,42.624l-.15867.47235,7.11842-.47248c1.64578,0,2.34785.364,2.34785-1.28178a3.00106,3.00106,0,0,0-2.99129-2.99219h1.57374a2.99229,2.99229,0,0,0,0-5.98458l-7.89005.00005v-.0001l9.52863-.0001a2.99225,2.99225,0,0,0,.0009-5.98449H62.398A3.00107,3.00107,0,0,0,65.39031,23.38839Z" style="fill:#ffcdd2"/><path d="M51.85087,17.2303H64.22179A3.17418,3.17418,0,0,1,67.396,20.40449v0a3.17421,3.17421,0,0,1-3.17421,3.17421H48.67666a0,0,0,0,1,0,0V20.40452a3.17421,3.17421,0,0,1,3.17421-3.17421Z" style="fill:none;stroke:#212121;stroke-linecap:round;stroke-linejoin:round"/><path d="M49.90142,23.57863H63.14153a3.1742,3.1742,0,0,1,3.1742,3.1742v0A3.17419,3.17419,0,0,1,63.14153,29.927H46.72722a0,0,0,0,1,0,0v-3.1742A3.1742,3.1742,0,0,1,49.90142,23.57863Z" style="fill:none;stroke:#212121;stroke-linecap:round;stroke-linejoin:round"/><line x1="51.85111" y1="17.23038" x2="43.11766" y2="17.23038" style="fill:none;stroke:#212121;stroke-linecap:round;stroke-linejoin:round"/><path d="M35.93,34.64775V.5h3.7173a3.48056,3.48056,0,0,1,3.47036,3.47036V19.13907" style="fill:none;stroke:#212121;stroke-linecap:round;stroke-linejoin:round"/><path d="M49.90143,29.92719H61.40336a3.17418,3.17418,0,0,1,3.17418,3.17418v0a3.17421,3.17421,0,0,1-3.17421,3.17421H46.72722a0,0,0,0,1,0,0V33.1014a3.17421,3.17421,0,0,1,3.17421-3.17421Z" style="fill:none;stroke:#212121;stroke-linecap:round;stroke-linejoin:round"/><path d="M49.90142,36.27552h9.8315a3.1742,3.1742,0,0,1,3.1742,3.1742v0a3.1742,3.1742,0,0,1-3.1742,3.1742H46.72722a0,0,0,0,1,0,0v-3.1742A3.1742,3.1742,0,0,1,49.90142,36.27552Z" style="fill:none;stroke:#212121;stroke-linecap:round;stroke-linejoin:round"/><line x1="52.43524" y1="42.73631" x2="17.57737" y2="72.47093" style="fill:none;stroke:#212121;stroke-linecap:round;stroke-linejoin:round"/><line x1="35.93" y1="31.71973" x2="0.5" y2="60.91037" style="fill:none;stroke:#212121;stroke-linecap:round;stroke-linejoin:round"/></svg>