<svg xmlns="http://www.w3.org/2000/svg" viewBox="0 0 27.61058 117.0259"><title>cs-hand1</title><polyline points="5.418 116.804 6.159 45.295 23.03 45.928 22.94 116.804" style="fill:#fff"/><path d="M10.14548,6.06345V1.36479h2.98571A2.53059,2.53059,0,0,1,15.80052,3.7101V6.06345h2.98571a2.53058,2.53058,0,0,1,2.66932,2.3453v4.4685h2.98572a2.53058,2.53058,0,0,1,2.66932,2.34531V41.11739a6.02409,6.02409,0,0,1-6.09,5.91917H6.33073a6.0241,6.0241,0,0,1-6.09-5.91918V18.96307H4.49044V3.82511H7.47616a2.53058,2.53058,0,0,1,2.66932,2.3453" style="fill:#fff"/><path d="M11.447,9.20671V4.86852h2.75666A2.33644,2.33644,0,0,1,16.6682,7.0339V9.20671h2.75665a2.33644,2.33644,0,0,1,2.46454,2.16538v4.1257H24.646a2.33644,2.33644,0,0,1,2.46454,2.16538V39.93394h0v1.63753a5.56193,5.56193,0,0,1-5.62281,5.46508H7.92493a5.56193,5.56193,0,0,1-5.62281-5.46508V21.11674H6.22581V7.14009H8.98246A2.33644,2.33644,0,0,1,11.447,9.30547" style="fill:#ffcdd2"/><polyline points="8.076 116.804 8.817 45.295 23.03 45.928 22.94 116.804" style="fill:#ffcdd2"/><path d="M21.51011,12.23044H24.467a2.53373,2.53373,0,0,1,2.64357,2.3897v24.578" style="fill:none;stroke:#212121;stroke-linecap:round;stroke-linejoin:round"/><path d="M15.90964,5.28762h2.9569a2.53373,2.53373,0,0,1,2.64357,2.38971v23.898" style="fill:none;stroke:#212121;stroke-linecap:round;stroke-linejoin:round"/><path d="M10.30918,25.50522V5.39661A2.53374,2.53374,0,0,0,7.66561,3.0069H4.70871V18.43149" style="fill:none;stroke:#212121;stroke-linecap:round;stroke-linejoin:round"/><path d="M15.90964,27.81926V2.88971A2.53373,2.53373,0,0,0,13.26608.5h-2.9569V5.28762" style="fill:none;stroke:#212121;stroke-linecap:round;stroke-linejoin:round"/><line x1="23.0302" y1="47.27966" x2="22.93955" y2="116.5259" style="fill:none;stroke:#212121;stroke-linecap:round;stroke-linejoin:round"/><line x1="5.58544" y1="46.96151" x2="4.74835" y2="116.5259" style="fill:none;stroke:#212121;stroke-linecap:round;stroke-linejoin:round"/><path d="M6.46587,24.50706a32.70941,32.70941,0,0,1,16.60191,8.576" style="fill:none;stroke:#212121;stroke-linecap:round;stroke-linejoin:round"/><path d="M6.53126,47.03653A6.049,6.049,0,0,1,.5,41.00527V39.1981" style="fill:none;stroke:#212121;stroke-linecap:round;stroke-linejoin:round"/><path d="M27.11058,39.1981v1.80717a6.049,6.049,0,0,1-6.03126,6.03126H11.57647" style="fill:none;stroke:#212121;stroke-linecap:round;stroke-linejoin:round"/><path d="M6.46588,36.216h0V20.97712a2.69906,2.69906,0,0,0-2.816-2.54563H.5V36.66265" style="fill:#fff"/><polyline points="6.466 42.139 6.466 21.117 6.308 21.117 2.302 21.117 2.302 39.934 3.516 41.571" style="fill:#ffcdd2"/><path d="M11.57647,40.8358h0A4.89827,4.89827,0,0,0,6.46588,36.216h0V20.97712a2.69906,2.69906,0,0,0-2.816-2.54563H.5V39.1981" style="fill:none;stroke:#212121;stroke-linecap:round;stroke-linejoin:round"/></svg>