<svg xmlns="http://www.w3.org/2000/svg" viewBox="0 0 70 70"><title>cs-icon-cost</title><rect x="22.9668" y="14.65849" width="21.44058" height="40.68281" transform="translate(-5.58803 6.41182) rotate(-10.04435)" style="fill:#fff"/><rect x="23.26353" y="18.03243" width="17.93165" height="37.59138" transform="matrix(0.98467, -0.17441, 0.17441, 0.98467, -5.92924, 6.18562)" style="fill:#a7ffeb"/><rect x="22.9668" y="14.65849" width="21.44058" height="40.68281" transform="translate(-5.58803 6.41182) rotate(-10.04435)" style="fill:none;stroke:#212121;stroke-linecap:round;stroke-linejoin:round"/><ellipse cx="33.68709" cy="34.9999" rx="10.72029" ry="6.28117" transform="translate(-5.58815 6.41199) rotate(-10.0446)" style="fill:none;stroke:#212121;stroke-linecap:round;stroke-linejoin:round"/><polyline points="38.695 21.926 37.78 16.757 34.457 17.345" style="fill:none;stroke:#212121;stroke-linecap:round;stroke-linejoin:round"/><polyline points="42.881 45.558 43.797 50.728 40.473 51.316" style="fill:none;stroke:#212121;stroke-linecap:round;stroke-linejoin:round"/><polyline points="28.679 48.073 29.594 53.243 32.918 52.654" style="fill:none;stroke:#212121;stroke-linecap:round;stroke-linejoin:round"/><polyline points="24.493 24.442 23.578 19.272 26.901 18.683" style="fill:none;stroke:#212121;stroke-linecap:round;stroke-linejoin:round"/><rect x="28.97582" y="14.65851" width="21.44066" height="40.6828" style="fill:#fff"/><rect x="28.97605" y="17.75019" width="17.93171" height="37.59137" style="fill:#a7ffeb"/><rect x="28.97582" y="14.65851" width="21.44066" height="40.6828" style="fill:none;stroke:#212121;stroke-linecap:round;stroke-linejoin:round"/><ellipse cx="39.69615" cy="34.9999" rx="10.72033" ry="6.28117" style="fill:none;stroke:#212121;stroke-linecap:round;stroke-linejoin:round"/><polyline points="46.908 23 46.908 17.75 43.533 17.75" style="fill:none;stroke:#212121;stroke-linecap:round;stroke-linejoin:round"/><polyline points="46.908 47 46.908 52.25 43.533 52.25" style="fill:none;stroke:#212121;stroke-linecap:round;stroke-linejoin:round"/><polyline points="32.485 47 32.485 52.25 35.859 52.25" style="fill:none;stroke:#212121;stroke-linecap:round;stroke-linejoin:round"/><polyline points="32.485 23 32.485 17.75 35.859 17.75" style="fill:none;stroke:#212121;stroke-linecap:round;stroke-linejoin:round"/></svg>