<svg xmlns="http://www.w3.org/2000/svg" viewBox="0 0 70 70"><title>cs-icon-influencers</title><path d="M58.32171,32.11463H61.652a2.12586,2.12586,0,0,1,2.11963,2.11963V51.64791A2.12586,2.12586,0,0,1,61.652,53.76754H45.23913a2.12586,2.12586,0,0,1-2.11963-2.11963V34.23426a2.12586,2.12586,0,0,1,2.11963-2.11963H58.32171Z" style="fill:#a7ffeb"/><path d="M25.4338,32.11463h3.33027a2.12586,2.12586,0,0,1,2.11963,2.11963V51.64791a2.12586,2.12586,0,0,1-2.11963,2.11963H12.35122a2.12586,2.12586,0,0,1-2.11963-2.11963V34.23426a2.12586,2.12586,0,0,1,2.11963-2.11963H25.4338Z" style="fill:#ff9792"/><circle cx="20.02811" cy="25.98084" r="6.80425" style="fill:#ff9792"/><circle cx="18.55604" cy="24.50877" r="8.27632" style="fill:none;stroke:#212121;stroke-linecap:round;stroke-linejoin:round"/><path d="M25.4338,29.11223h3.33027a2.12586,2.12586,0,0,1,2.11963,2.11963V51.64791a2.12586,2.12586,0,0,1-2.11963,2.11963H8.348a2.12586,2.12586,0,0,1-2.11963-2.11963V31.23186A2.12586,2.12586,0,0,1,8.348,29.11223h3.32985" style="fill:none;stroke:#212121;stroke-linecap:round;stroke-linejoin:round"/><circle cx="52.86788" cy="25.98084" r="6.80425" style="fill:#a7ffeb"/><circle cx="51.39581" cy="24.50877" r="8.27632" style="fill:none;stroke:#212121;stroke-linecap:round;stroke-linejoin:round"/><path d="M58.27357,29.11223h3.33027a2.12586,2.12586,0,0,1,2.11963,2.11963V51.64791a2.12586,2.12586,0,0,1-2.11963,2.11963h-20.416a2.12586,2.12586,0,0,1-2.11963-2.11963V31.23186a2.12586,2.12586,0,0,1,2.11963-2.11963h3.32986" style="fill:none;stroke:#212121;stroke-linecap:round;stroke-linejoin:round"/></svg>