<svg xmlns="http://www.w3.org/2000/svg" xmlns:xlink="http://www.w3.org/1999/xlink" viewBox="0 0 133.12027 137.33301"><defs><clipPath id="a" transform="translate(-2.06502 -1.77539)"><circle cx="68.69229" cy="70.37011" r="46.97297" style="fill:none"/></clipPath></defs><title>icon-thumbsup</title><path d="M33.76726,20,30.443,15.05078l-1.78125,1.19629-.76661-1.1416,4.84864-3.25684.7666,1.1416-1.77149,1.18946,3.3252,4.94922Z" transform="translate(-2.06502 -1.77539)"/><path d="M43.94011,14.2998l-1.31836-2.7832L39.48991,12.999l1.31836,2.78418-1.41211.668L36.25651,9.81934l1.41211-.668,1.2334,2.60449,3.13184-1.48242L40.80046,7.669,42.21257,7l3.13867,6.63184Z" transform="translate(-2.06502 -1.77539)"/><path d="M51.72233,11.65723a4.29449,4.29449,0,0,1-1.46582.18457,2.8456,2.8456,0,0,1-1.16894-.31739,2.51355,2.51355,0,0,1-.85742-.75488,3.61547,3.61547,0,0,1-.53907-1.13867L46.47624,5.39062,47.9987,4.9541l1.2002,4.1875a1.78588,1.78588,0,0,0,.76171,1.08008,1.6564,1.6564,0,0,0,1.374.10449,1.63771,1.63771,0,0,0,1.10547-.81445,1.79654,1.79654,0,0,0,.06836-1.31836l-1.19922-4.1875,1.54394-.44238L54.06511,7.793a3.67959,3.67959,0,0,1,.14746,1.25683,2.55737,2.55737,0,0,1-.3252,1.10547,2.74657,2.74657,0,0,1-.82226.8877A4.39672,4.39672,0,0,1,51.72233,11.65723Z" transform="translate(-2.06502 -1.77539)"/><path d="M64.49675,9.25391l-.53907-5.1084L62.44011,9.47168l-.67774.07129-2.5957-4.8916.53906,5.1084L58.152,9.92383,57.38249,2.627l2.17383-.22949,2.23437,4.22266,1.30469-4.59571L65.28,1.794l.77051,7.29589Z" transform="translate(-2.06502 -1.77539)"/><path d="M69.41667,9.09961l.43555-7.32422,3.86035.22949a2.53894,2.53894,0,0,1,.915.209,1.93592,1.93592,0,0,1,.63574.45019,1.67758,1.67758,0,0,1,.36035.62207,2.002,2.002,0,0,1-.04687,1.3418,1.60829,1.60829,0,0,1-.30665.4834,1.57711,1.57711,0,0,1-.42382.32715,1.55683,1.55683,0,0,1-.50391.16308,1.418,1.418,0,0,1,.54.23633,1.803,1.803,0,0,1,.69629.98828,1.9423,1.9423,0,0,1,.07129.66016,2.12414,2.12414,0,0,1-.1836.76562,1.782,1.782,0,0,1-.44336.60254,1.91673,1.91673,0,0,1-.6914.38281,2.5321,2.5321,0,0,1-.93262.09864Zm3.64941-1.13867a.99728.99728,0,0,0,.71-.1836.79768.79768,0,0,0,.28418-.60546.84382.84382,0,0,0-.20605-.61817.92561.92561,0,0,0-.6875-.29492L71.1569,6.13965,71.05632,7.8418Zm.125-3.04492a.87254.87254,0,0,0,.63965-.18262.75109.75109,0,0,0,.26367-.55664.76786.76786,0,0,0-.19629-.59082.85729.85729,0,0,0-.6123-.26172L71.33171,3.208,71.237,4.7998Z" transform="translate(-2.06502 -1.77539)"/><path d="M81.13444,10.57227a4.66036,4.66036,0,0,1-1.72265-.68457A3.8355,3.8355,0,0,1,78.33464,8.793L79.405,7.7998a3.38,3.38,0,0,0,.81738.88282,3.034,3.034,0,0,0,1.26563.55859,1.54377,1.54377,0,0,0,.99316-.04687.71337.71337,0,0,0,.4209-.49024.53234.53234,0,0,0-.208-.542,3.49077,3.49077,0,0,0-.70605-.44336q-.43359-.2124-.94531-.45313a4.48944,4.48944,0,0,1-.9209-.57128,2.29931,2.29931,0,0,1-.63282-.79786,1.78037,1.78037,0,0,1-.083-1.14453,1.94426,1.94426,0,0,1,.36425-.80468,2.17586,2.17586,0,0,1,.68555-.582,2.657,2.657,0,0,1,.958-.29492,3.61714,3.61714,0,0,1,1.17969.06446,4.04022,4.04022,0,0,1,2.59179,1.58886l-1.083.94727a2.81971,2.81971,0,0,0-.86817-.80274,3.45114,3.45114,0,0,0-1.05957-.416,1.27521,1.27521,0,0,0-.80078.042.63536.63536,0,0,0-.37109.4668.48843.48843,0,0,0,.21582.499,3.673,3.673,0,0,0,.707.42676c.28906.13769.60156.28906.9375.45117a4.51385,4.51385,0,0,1,.91113.58106,2.30493,2.30493,0,0,1,.62793.80859,1.779,1.779,0,0,1,.084,1.13769,2.37749,2.37749,0,0,1-.36622.87793,2.00317,2.00317,0,0,1-.68359.61524,2.63839,2.63839,0,0,1-.999.29785A4.15091,4.15091,0,0,1,81.13444,10.57227Z" transform="translate(-2.06502 -1.77539)"/><path d="M94.46061,14.98828A4.29128,4.29128,0,0,1,93.2321,14.168a2.85833,2.85833,0,0,1-.67481-1.00488,2.52938,2.52938,0,0,1-.15332-1.13282,3.594,3.594,0,0,1,.33985-1.21289l1.85937-4,1.43653.668-1.83692,3.9502A1.78278,1.78278,0,0,0,94.07,12.75a1.66087,1.66087,0,0,0,.9707.97949,1.6379,1.6379,0,0,0,1.36817.1084,1.79542,1.79542,0,0,0,.916-.95117L99.16179,8.9375l1.45605.67676-1.85547,3.99023a3.66317,3.66317,0,0,1-.71094,1.0459,2.572,2.572,0,0,1-.9707.62207,2.7594,2.7594,0,0,1-1.20312.13184A4.38768,4.38768,0,0,1,94.46061,14.98828Z" transform="translate(-2.06502 -1.77539)"/><path d="M100.44011,17.96l4.07324-6.10254,2.86035,1.9082a2.822,2.822,0,0,1,.77637.74317,2.23291,2.23291,0,0,1,.36133.85644,2.13638,2.13638,0,0,1-.02344.88965,2.60284,2.60284,0,0,1-.374.84864,2.5287,2.5287,0,0,1-.64453.667,2.16633,2.16633,0,0,1-.81445.35644,2.34512,2.34512,0,0,1-.92578-.00293,2.703,2.703,0,0,1-.98242-.4248l-1.55957-1.041-1.44727,2.16895Zm4.8916-1.52344a1.14277,1.14277,0,0,0,.78711.208,1.00885,1.00885,0,0,0,.80566-1.208,1.14285,1.14285,0,0,0-.49316-.64648l-1.38184-.92188-1.09961,1.64649Z" transform="translate(-2.06502 -1.77539)"/><path d="M26.43425,124.69678l4.292-5.95069,4.21094,3.0376-.8042,1.11524-2.94434-2.12354-.90722,1.25781,2.88183,2.07862-.80469,1.11474-2.88134-2.07812-.97168,1.34668,2.94384,2.124-.8042,1.11475Z" transform="translate(-2.06502 -1.77539)"/><path d="M35.93327,130.85449l.88135-7.81738,1.57959.82519-.80908,5.94385,4.40673-4.06494,1.57959.8252-5.90283,5.19433Z" transform="translate(-2.06502 -1.77539)"/><path d="M47.757,135.895l-.01562-1.32227-2.96973-1.03808-.84619,1.02051-1.68213-.58789,5.1001-5.98926,1.84863.646.24707,7.85889Zm-.00488-6.11963-2.12158,2.60254,2.15966.75537Z" transform="translate(-2.06502 -1.77539)"/><path d="M52.85319,137.29639l1.437-7.19483,1.53174.30615-1.16748,5.8462,3.04151.60791-.269,1.34814Z" transform="translate(-2.06502 -1.77539)"/><path d="M64.37614,139.05811a4.278,4.278,0,0,1-1.44433-.31055,2.84785,2.84785,0,0,1-.99707-.68652,2.52172,2.52172,0,0,1-.55957-.99659,3.62336,3.62336,0,0,1-.13086-1.25293l.2583-4.40332,1.58105.09229-.25488,4.34863a1.78687,1.78687,0,0,0,.36084,1.272,1.97772,1.97772,0,0,0,2.57519.15088,1.79737,1.79737,0,0,0,.501-1.22119l.25488-4.34863,1.60352.09424-.25781,4.39209a3.66159,3.66159,0,0,1-.27637,1.23486,2.56892,2.56892,0,0,1-.67285.93555,2.76111,2.76111,0,0,1-1.0708.56543A4.38344,4.38344,0,0,1,64.37614,139.05811Z" transform="translate(-2.06502 -1.77539)"/><path d="M76.67106,138.585l-.56054-1.19775-3.1333.28222-.34864,1.2793-1.7749.15967,2.169-7.562,1.9497-.1753,3.47364,7.0542Zm-2.53369-5.57031-.85644,3.24658,2.27881-.20508Z" transform="translate(-2.06502 -1.77539)"/><path d="M82.85075,137.52979l-1.31592-5.81495-2.09228.47364-.30371-1.34131,5.69726-1.28906.30323,1.34082-2.08106.47119,1.31592,5.81494Z" transform="translate(-2.06502 -1.77539)"/><path d="M90.00065,135.58447l-2.38964-6.937,1.47705-.50879,2.38916,6.937Z" transform="translate(-2.06502 -1.77539)"/><path d="M98.60856,132.20117a4.09731,4.09731,0,0,1-1.49609.42188,3.53689,3.53689,0,0,1-2.68408-.90039,4.20036,4.20036,0,0,1-1.34278-2.73536,3.54038,3.54038,0,0,1,.93018-2.67431,4.33911,4.33911,0,0,1,2.75488-1.35205,3.53693,3.53693,0,0,1,2.68409.90039,4.2003,4.2003,0,0,1,1.34277,2.73535,3.53746,3.53746,0,0,1-.92969,2.67432A4.13147,4.13147,0,0,1,98.60856,132.20117Zm-.61035-1.24414a2.19392,2.19392,0,0,0,.74219-.57275,2.13162,2.13162,0,0,0,.40869-.76416,2.24112,2.24112,0,0,0,.0708-.88037,2.95822,2.95822,0,0,0-.84326-1.71827,2.312,2.312,0,0,0-.7417-.4873,2.038,2.038,0,0,0-.855-.144,2.4157,2.4157,0,0,0-1.64941.80908,1.98566,1.98566,0,0,0-.40381.76221,2.34462,2.34462,0,0,0-.063.88281A2.94723,2.94723,0,0,0,95.507,130.562a2.2858,2.2858,0,0,0,.73438.48535,2.0728,2.0728,0,0,0,.84961.14649A2.2038,2.2038,0,0,0,97.99821,130.957Z" transform="translate(-2.06502 -1.77539)"/><path d="M109.56852,125.3418l-5.626-1.86621,2.77783,3.89648-1.272.90674-4.25879-5.97461,1.30762-.93213,5.44287,1.78027-2.6753-3.75341,1.272-.90625,4.25879,5.97412Z" transform="translate(-2.06502 -1.77539)"/><circle cx="66.62727" cy="68.59472" r="46.97297" style="fill:#fff"/><g style="clip-path:url(#a)"><path d="M70.01714,64.98991H88.44093a4.41694,4.41694,0,0,1,4.41694,4.41694v0a4.41693,4.41693,0,0,1-4.41693,4.41693H65.6002a0,0,0,0,1,0,0V69.40685a4.41694,4.41694,0,0,1,4.41694-4.41694Z" style="fill:#ffcdd2"/><path d="M70.01716,73.824H86.02224a4.41691,4.41691,0,0,1,4.41691,4.41691v0a4.417,4.417,0,0,1-4.417,4.417H65.6002a0,0,0,0,1,0,0V78.241A4.417,4.417,0,0,1,70.01716,73.824Z" style="fill:#ffcdd2"/><path d="M70.01714,82.65779H83.69782a4.41693,4.41693,0,0,1,4.41693,4.41693v0a4.41694,4.41694,0,0,1-4.41694,4.41694H65.6002a0,0,0,0,1,0,0V87.07472a4.41694,4.41694,0,0,1,4.41694-4.41694Z" style="fill:#ffcdd2"/><path d="M93.63515,66.50058a4.176,4.176,0,0,0-4.16381-4.16382l-14.67617.00007v-.00007H64.57865V44.94287a4.56576,4.56576,0,0,0-4.55243-4.55229H55.15011V81.34351L8.67426,119.63482l20.39559,13.44187L74.79517,93.26718l-.22079.65727,9.90539-.65745c2.29011,0,3.26706.50649,3.26706-1.78362a4.176,4.176,0,0,0-4.16242-4.16368h2.18987a4.16381,4.16381,0,0,0,0-8.32762l-10.97911.00007V78.992l13.25922-.00014a4.16374,4.16374,0,0,0,.00125-8.32748h1.4157A4.176,4.176,0,0,0,93.63515,66.50058Z" transform="translate(-2.06502 -1.77539)" style="fill:#ffcdd2"/><path d="M72.72983,56.15612h17.2143A4.41691,4.41691,0,0,1,94.361,60.573v0a4.417,4.417,0,0,1-4.417,4.417H68.31287a0,0,0,0,1,0,0V60.57308A4.417,4.417,0,0,1,72.72983,56.15612Z" style="fill:none;stroke:#212121;stroke-linecap:round;stroke-linejoin:round;stroke-width:1.24113288972583px"/><path d="M70.01714,64.98991H88.44093a4.41694,4.41694,0,0,1,4.41694,4.41694v0a4.41693,4.41693,0,0,1-4.41693,4.41693H65.6002a0,0,0,0,1,0,0V69.40685a4.41694,4.41694,0,0,1,4.41694-4.41694Z" style="fill:none;stroke:#212121;stroke-linecap:round;stroke-linejoin:round;stroke-width:1.24113288972583px"/><line x1="72.73016" y1="56.15623" x2="60.57745" y2="56.15623" style="fill:none;stroke:#212121;stroke-linecap:round;stroke-linejoin:round;stroke-width:1.24113288972583px"/><path d="M52.64075,82.16812v-47.517h5.17267a4.84324,4.84324,0,0,1,4.82905,4.829V60.58759" transform="translate(-2.06502 -1.77539)" style="fill:none;stroke:#212121;stroke-linecap:round;stroke-linejoin:round;stroke-width:1.24113288972583px"/><path d="M70.01716,73.824H86.02224a4.41691,4.41691,0,0,1,4.41691,4.41691v0a4.417,4.417,0,0,1-4.417,4.417H65.6002a0,0,0,0,1,0,0V78.241A4.417,4.417,0,0,1,70.01716,73.824Z" style="fill:none;stroke:#212121;stroke-linecap:round;stroke-linejoin:round;stroke-width:1.24113288972583px"/><path d="M70.01714,82.65779H83.69782a4.41693,4.41693,0,0,1,4.41693,4.41693v0a4.41694,4.41694,0,0,1-4.41694,4.41694H65.6002a0,0,0,0,1,0,0V87.07472a4.41694,4.41694,0,0,1,4.41694-4.41694Z" style="fill:none;stroke:#212121;stroke-linecap:round;stroke-linejoin:round;stroke-width:1.24113288972583px"/><line x1="73.54298" y1="91.64806" x2="25.03779" y2="133.02417" style="fill:none;stroke:#212121;stroke-linecap:round;stroke-linejoin:round;stroke-width:1.24113288972583px"/><line x1="50.57573" y1="76.31835" x2="1.27441" y2="116.93751" style="fill:none;stroke:#212121;stroke-linecap:round;stroke-linejoin:round;stroke-width:1.24113288972583px"/></g><circle cx="66.62727" cy="68.59472" r="46.97297" style="fill:none;stroke:#212121;stroke-linecap:round;stroke-linejoin:round"/><polygon points="6.82 58.066 8.927 62.336 13.64 63.02 10.23 66.344 11.035 71.038 6.82 68.822 2.605 71.038 3.41 66.344 0 63.02 4.712 62.336 6.82 58.066" style="fill:#ea80fc"/><polygon points="126.3 58.066 128.408 62.336 133.12 63.02 129.71 66.344 130.515 71.038 126.3 68.822 122.086 71.038 122.891 66.344 119.481 63.02 124.193 62.336 126.3 58.066" style="fill:#ea80fc"/></svg>