<?xml version="1.0" encoding="UTF-8"?> <svg xmlns="http://www.w3.org/2000/svg" xmlns:xlink="http://www.w3.org/1999/xlink" width="47px" height="43px" viewBox="0 0 47 43"><!-- Generator: Sketch 53.2 (72643) - https://sketchapp.com --><title>Group 31</title><desc>Created with Sketch.</desc><g id="Design" stroke="none" stroke-width="1" fill="none" fill-rule="evenodd"><g id="Pricing" transform="translate(-450.000000, -914.000000)"><g id="Enterprise" transform="translate(388.000000, 303.000000)"><g transform="translate(0.000000, 131.000000)" id="Group-9"><g transform="translate(38.000000, 386.000000)"><g id="Group-6" transform="translate(23.000000, 95.000000)"><g id="Group-31" transform="translate(2.000000, 0.000000)"><path d="M4.2697,41.3524 C2.1877,41.3524 0.4997,39.6654 0.4997,37.5824 L7.6327,37.5824 L8.0397,37.5824 C8.0397,39.6654 6.3517,41.3524 4.2697,41.3524" id="Fill-1" fill="#FFFFFF"></path><path d="M15.0203632,3.3568 L15.0203632,3.3568 C12.9642307,3.3568 11.2987316,4.9268 11.2987316,6.8628 L11.2987316,37.8468 C11.2987316,39.7828 9.63217095,41.3528 7.5771,41.3528 L34.2972684,41.3528 C36.3523394,41.3528 38.0189,39.7828 38.0189,37.8468 L38.0189,3.3568" id="Fill-3" fill="#A7FFEB"></path><path d="M12.0124,0.4998 L12.0124,0.4998 C14.0944,0.4998 15.7824,2.1878 15.7824,4.2698 L45.1514,4.2698 C45.1514,2.1878 43.4634,0.4998 41.3814,0.4998 L12.0124,0.4998 Z" id="Fill-5" fill="#FFFFFF"></path><path d="M8.2429,37.5828 C8.2429,39.6648 6.5549,41.3528 4.4729,41.3528 L34.2489,41.3528 C36.3309,41.3528 38.0189,39.6648 38.0189,37.5828 L38.0189,4.2698 L15.7829,4.2698 C15.7829,2.1878 14.0949,0.4998 12.0129,0.4998 C9.9299,0.4998 8.2429,2.1878 8.2429,4.2698 L8.2429,37.5828 Z" id="Stroke-7" stroke="#212121" stroke-linecap="round" stroke-linejoin="round"></path><path d="M4.2697,41.3524 C2.1877,41.3524 0.4997,39.6654 0.4997,37.5824 L7.6327,37.5824 L8.0397,37.5824 C8.0397,39.6654 6.3517,41.3524 4.2697,41.3524" id="Stroke-9" stroke="#212121" stroke-linecap="round" stroke-linejoin="round"></path><path d="M12.0124,0.4998 L12.0124,0.4998 C14.0944,0.4998 15.7824,2.1878 15.7824,4.2698 L45.1514,4.2698 C45.1514,2.1878 43.4634,0.4998 41.3814,0.4998 L12.0124,0.4998 Z" id="Stroke-11" stroke="#212121" stroke-linecap="round" stroke-linejoin="round"></path><path d="M8.2429,4.2698 L8.2429,37.5828" id="Stroke-13" stroke="#212121" stroke-linecap="round" stroke-linejoin="round"></path><path d="M38.0188,4.2698 L38.0188,37.5828" id="Stroke-15" stroke="#212121" stroke-linecap="round" stroke-linejoin="round"></path><path d="M38.0188,37.5828 C38.0188,39.6648 36.3308,41.3528 34.2488,41.3528 L4.4738,41.3528" id="Stroke-17" stroke="#212121" stroke-linecap="round" stroke-linejoin="round"></path><path d="M8.2429,37.5828 C8.2429,39.6648 6.5549,41.3528 4.4729,41.3528" id="Stroke-19" stroke="#212121" stroke-linecap="round" stroke-linejoin="round"></path><path d="M13.4929,10.2596 L26.6969,10.2596" id="Stroke-21" stroke="#212121" stroke-linecap="round" stroke-linejoin="round"></path><path d="M13.4929,13.3045 L26.6969,13.3045" id="Stroke-23" stroke="#212121" stroke-linecap="round" stroke-linejoin="round"></path><path d="M13.4929,18.2176 L32.7689,18.2176" id="Stroke-25" stroke="#212121" stroke-linecap="round" stroke-linejoin="round"></path><path d="M13.4929,21.2625 L26.6969,21.2625" id="Stroke-27" stroke="#212121" stroke-linecap="round" stroke-linejoin="round"></path><path d="M13.4929,24.3074 L30.3109,24.3074" id="Stroke-29" stroke="#212121" stroke-linecap="round" stroke-linejoin="round"></path></g></g></g></g></g></g></g></svg> 