<?xml version="1.0" encoding="UTF-8"?> <svg xmlns="http://www.w3.org/2000/svg" xmlns:xlink="http://www.w3.org/1999/xlink" width="31px" height="48px" viewBox="0 0 31 48"><!-- Generator: Sketch 53.2 (72643) - https://sketchapp.com --><title>Group 8</title><desc>Created with Sketch.</desc><g id="Design" stroke="none" stroke-width="1" fill="none" fill-rule="evenodd"><g id="Pricing" transform="translate(-764.000000, -908.000000)"><g id="Enterprise" transform="translate(388.000000, 303.000000)"><g transform="translate(0.000000, 131.000000)" id="Group-9"><g transform="translate(38.000000, 386.000000)"><g id="Group-2" transform="translate(338.000000, 89.000000)"><g id="Group-8" transform="translate(1.000000, 0.000000)"><polygon id="Fill-1" fill="#FFCC80" points="4 47 29 47 29 23 4 23"></polygon><g id="Group-7"><polygon id="Stroke-2" stroke="#212121" stroke-linecap="round" stroke-linejoin="round" points="0.466806452 46.4659091 28.8194516 46.4659091 28.8194516 18.9602273 0.466806452 18.9602273"></polygon><path d="M23.3365806,10.3710841 C23.3365806,4.889175 19.4449677,0.444470455 14.643129,0.444470455 C9.84222581,0.444470455 5.9506129,4.889175 5.9506129,10.3710841 L5.9506129,18.9603341" id="Stroke-4" stroke="#212121" stroke-linecap="round" stroke-linejoin="round"></path><path d="M17.9073129,29.4382364 C17.9073129,31.5489636 16.4086677,33.2601909 14.5610871,33.2601909 C12.7116355,33.2601909 11.2139258,31.5489636 11.2139258,29.4382364 C11.2139258,27.3275091 12.7116355,25.6162818 14.5610871,25.6162818 C16.4086677,25.6162818 17.9073129,27.3275091 17.9073129,29.4382364" id="Fill-5" fill="#212121"></path><polygon id="Fill-6" fill="#212121" points="12.6872194 30.7030705 16.4338323 30.7030705 17.0138323 38.8735932 12.1081548 38.8735932"></polygon></g></g></g></g></g></g></g></g></svg> 