<?xml version="1.0" encoding="UTF-8"?> <svg xmlns="http://www.w3.org/2000/svg" xmlns:xlink="http://www.w3.org/1999/xlink" width="61px" height="42px" viewBox="0 0 61 42"><!-- Generator: Sketch 53.2 (72643) - https://sketchapp.com --><title>Group 11</title><desc>Created with Sketch.</desc><g id="Design" stroke="none" stroke-width="1" fill="none" fill-rule="evenodd"><g id="Pricing" transform="translate(-1088.000000, -918.000000)"><g id="Enterprise" transform="translate(388.000000, 303.000000)"><g transform="translate(0.000000, 131.000000)" id="Group-9"><g transform="translate(38.000000, 386.000000)"><g id="Group-4" transform="translate(661.000000, 99.000000)"><g id="Group-11" transform="translate(2.000000, 0.000000)"><polygon id="Fill-1" fill="#75DFFC" points="25 19 25 35.5865951 42.1691152 35.5865951 50.3404045 40 50.3404045 35.5865951 59 35.5865951 59 19"></polygon><polygon id="Stroke-2" stroke="#212121" stroke-linecap="round" stroke-linejoin="round" points="59 35.5201867 50.4553597 35.5201867 50.4553597 40 42.3925435 35.5201867 21 35.5201867 21 15 59 15"></polygon><polygon id="Fill-4" fill="#FFFFFF" points="0 0 0 20.5210902 8.54378363 20.5210902 8.54378363 25 16.6068344 20.5210902 38 20.5210902 38 0"></polygon><polygon id="Stroke-5" stroke="#212121" stroke-linecap="round" stroke-linejoin="round" points="0 20.5201867 8.54378363 20.5201867 8.54378363 25 16.6079395 20.5201867 38 20.5201867 38 0 0 0"></polygon><polygon id="Fill-7" fill="#FFFFFF" points="0 0 0 20.5210902 8.54378363 20.5210902 8.54378363 25 16.6068344 20.5210902 38 20.5210902 38 0"></polygon><polygon id="Fill-8" fill="#EA80FC" points="3 21.0580792 8.03918168 21.0580792 8.03918168 25 16.2403571 20.4857575 38 21.0580792 38 3 3 3"></polygon><polygon id="Stroke-9" stroke="#212121" stroke-linecap="round" stroke-linejoin="round" points="0 20.5201867 8.54378363 20.5201867 8.54378363 25 16.6079395 20.5201867 38 20.5201867 38 0 0 0"></polygon></g></g></g></g></g></g></g></svg> 