<?xml version="1.0" encoding="utf-8"?>
<!-- Generator: Adobe Illustrator 23.0.2, SVG Export Plug-In . SVG Version: 6.00 Build 0)  -->
<svg version="1.1" id="Layer_1" xmlns="http://www.w3.org/2000/svg" xmlns:xlink="http://www.w3.org/1999/xlink" x="0px" y="0px"
	 viewBox="0 0 49 24" style="enable-background:new 0 0 49 24;" xml:space="preserve">
<style type="text/css">
	.st0{fill-rule:evenodd;clip-rule:evenodd;fill:#00C8AF;}
</style>
<title>Group 19</title>
<desc>Created with Sketch.</desc>
<g>
	<g id="Group-2" transform="translate(-63.000000, -197.000000)">
		<g transform="translate(14.000000, 175.000000)">
			<g id="Group-19" transform="translate(49.000000, 22.000000)">
				<path id="Fill-1" class="st0" d="M12.2,12.1L24,9.4c0,0,0-0.1,0-0.1C22.4,2.8,15.9-1.2,9.4,0.3c-6.5,1.5-10.6,8-9,14.4
					s8.1,10.4,14.6,8.9c2.2-0.5,4-1.5,5.5-2.9C16.5,19.6,13.3,16.4,12.2,12.1"/>
				<path id="Fill-3" class="st0" d="M37,21.3c-5.2,0-9.3-4.2-9.3-9.3h18.7C46.3,17.2,42.2,21.3,37,21.3 M37,0c-6.6,0-12,5.4-12,12
					c0,6.6,5.4,12,12,12c6.6,0,12-5.4,12-12C49,5.4,43.6,0,37,0"/>
			</g>
		</g>
	</g>
</g>
</svg>
