<svg xmlns="http://www.w3.org/2000/svg" viewBox="0 0 778.89111 105.27197"><title>logo</title><path d="M149.06422,53.31825l50.09766-11.79856c-.04564-.2047-.0801-.40934-.12832-.61407a51.517,51.517,0,1,0-14.84085,49.30764A51.473,51.473,0,0,1,149.06422,53.31825Z"/><path d="M258.03114,1.13156a51.48413,51.48413,0,1,0,51.48413,51.48413A51.48413,51.48413,0,0,0,258.03114,1.13156Zm0,91.54572a40.0616,40.0616,0,0,1-40.06159-40.06159h80.12317A40.06155,40.06155,0,0,1,258.03114,92.67728Z"/><path d="M15.20068,1.27246a6.74,6.74,0,0,1,1.9087.53027,6.41439,6.41439,0,0,1,1.626,1.0962,18.79766,18.79766,0,0,1,1.76758,1.90869L69.42725,66.67041q-.28345-2.96923-.42432-5.7627-.1421-2.792-.14111-5.2666V1.13135H89.93018V104.14111H77.4873a10.80719,10.80719,0,0,1-4.63085-.88379,11.32329,11.32329,0,0,1-3.71192-3.07519L20.57373,38.814q.21166,2.688.35352,5.26758.14063,2.58107.14111,4.84278v55.21679H0V1.13135H12.58447A20.3961,20.3961,0,0,1,15.20068,1.27246Z"/><path d="M343.38037,66.03369v38.10742H319.48389V1.13135h33.51172A68.7991,68.7991,0,0,1,372.04932,3.4292,35.77791,35.77791,0,0,1,384.9165,9.82764a24.22657,24.22657,0,0,1,7.24707,9.68554,32.09837,32.09837,0,0,1,2.26221,12.16016,32.65226,32.65226,0,0,1-1.34326,9.47363,28.69586,28.69586,0,0,1-3.99463,8.23731,30.94731,30.94731,0,0,1-6.50439,6.752,34.55721,34.55721,0,0,1-8.87256,4.87793,20.65968,20.65968,0,0,1,8.13037,7.28223l21.917,35.84472H382.124q-6.01024,0-8.62548-4.52441L356.38916,69.71045a6.95165,6.95165,0,0,0-6.92871-3.67676Zm0-16.47265h9.61524a24.57731,24.57731,0,0,0,8.30712-1.23731,14.99862,14.99862,0,0,0,5.62061-3.42969,13.06406,13.06406,0,0,0,3.18164-5.125,19.68027,19.68027,0,0,0,.98975-6.32812q0-6.78663-4.41846-10.60449-4.41943-3.81885-13.68066-3.81836h-9.61524Z"/><path d="M478.769,1.13135V19.51318H436.49072V43.55127h32.38086v17.6748H436.49072V85.75928H478.769v18.38183h-66.3164V1.13135Z"/><path d="M591.53564,104.14111H573.01221a8.08322,8.08322,0,0,1-5.02051-1.44922A9.19576,9.19576,0,0,1,565.09326,98.98l-6.08008-17.958h-39.168L513.76514,98.98a8.59229,8.59229,0,0,1-2.792,3.57031,7.795,7.795,0,0,1-4.98437,1.59082h-18.665l39.875-103.00976h24.46191ZM525.35986,64.76123h28.13868l-9.47364-28.209q-1.06055-2.68653-2.26269-6.32813-1.20264-3.64014-2.40332-7.88281-1.13233,4.3125-2.29785,7.98926-1.166,3.67675-2.22657,6.3623Z"/><path d="M665.70264,77.48682a4.80507,4.80507,0,0,1,1.69629.31836,4.62279,4.62279,0,0,1,1.626,1.0957l9.47364,9.96875a39.31743,39.31743,0,0,1-15.58887,12.2666q-9.36915,4.13672-22.16406,4.13574a52.80137,52.80137,0,0,1-21.03418-3.99414A45.49255,45.49255,0,0,1,603.9458,90.24854,48.55814,48.55814,0,0,1,594.01221,73.563a61.60745,61.60745,0,0,1-3.46387-20.96192,58.00648,58.00648,0,0,1,3.74707-21.1748,49.17486,49.17486,0,0,1,10.53418-16.65039A47.43632,47.43632,0,0,1,621.09033,3.88867,54.42691,54.42691,0,0,1,641.94678,0a55.68964,55.68964,0,0,1,10.92383,1.02539,53.42367,53.42367,0,0,1,9.5791,2.82764,43.74029,43.74029,0,0,1,8.20117,4.34863,43.06953,43.06953,0,0,1,6.64648,5.51367l-8.06054,10.81738a10.18537,10.18537,0,0,1-1.83789,1.80274,4.77715,4.77715,0,0,1-2.96973.81348,5.28861,5.28861,0,0,1-2.40332-.56543,26.49745,26.49745,0,0,1-2.4043-1.37891q-1.27148-.81153-2.792-1.76758a21.54423,21.54423,0,0,0-3.60547-1.76758,30.042,30.042,0,0,0-4.87891-1.3789,33.37911,33.37911,0,0,0-6.54-.56543,26.34229,26.34229,0,0,0-10.85157,2.19238,23.64293,23.64293,0,0,0-8.48437,6.39746,29.595,29.595,0,0,0-5.51465,10.32227,46.04563,46.04563,0,0,0-1.94434,13.96386,42.39254,42.39254,0,0,0,2.15625,14.06934,30.88447,30.88447,0,0,0,5.86817,10.35742,24.8937,24.8937,0,0,0,8.66113,6.39844,25.89,25.89,0,0,0,10.60449,2.19141,50.82691,50.82691,0,0,0,5.93946-.31836,26.99553,26.99553,0,0,0,5.01953-1.06055,20.41769,20.41769,0,0,0,4.38281-1.97949,27.60879,27.60879,0,0,0,4.17187-3.14551,8.38251,8.38251,0,0,1,1.8379-1.167A4.8269,4.8269,0,0,1,665.70264,77.48682Z"/><path d="M778.89111,104.14111H754.853V60.59033H712.99854v43.55078H688.96045V1.13135h24.03809V44.188H754.853V1.13135h24.03808Z"/></svg>