<svg xmlns="http://www.w3.org/2000/svg" viewBox="0 0 542.33328 368.05492"><title>package-bgdots</title><ellipse cx="490.50322" cy="4.89804" rx="5.5108" ry="3.98526" transform="translate(161.22384 368.48089) rotate(-48.40651)" style="fill:#a7ffeb"/><ellipse cx="508.23791" cy="22.1197" rx="4.40368" ry="5.51076" transform="translate(154.32005 387.54712) rotate(-48.40873)" style="fill:#a7ffeb"/><ellipse cx="525.05038" cy="35.56212" rx="5.5108" ry="3.98526" transform="translate(149.90431 404.62579) rotate(-48.40651)" style="fill:#a7ffeb"/><ellipse cx="538.07369" cy="48.53363" rx="4.4437" ry="3.98542" transform="translate(95.3649 358.19107) rotate(-40.12535)" style="fill:#a7ffeb"/><ellipse cx="443.76761" cy="57.55083" rx="5.5108" ry="3.98526" transform="translate(106.13562 351.22826) rotate(-48.40651)" style="fill:#a7ffeb"/><ellipse cx="461.5023" cy="74.7725" rx="4.40368" ry="5.51076" transform="translate(99.22912 370.29482) rotate(-48.40873)" style="fill:#a7ffeb"/><ellipse cx="478.31477" cy="88.21492" rx="5.5108" ry="3.98526" transform="translate(94.81609 387.37317) rotate(-48.40651)" style="fill:#a7ffeb"/><ellipse cx="491.33808" cy="101.18643" rx="4.4437" ry="3.98542" transform="translate(50.43231 340.4643) rotate(-40.12535)" style="fill:#a7ffeb"/><ellipse cx="459.34614" cy="39.9999" rx="5.5108" ry="3.98526" transform="translate(124.49836 356.97913) rotate(-48.40651)" style="fill:#a7ffeb"/><ellipse cx="477.08084" cy="57.22157" rx="4.40368" ry="5.51076" transform="translate(117.59276 376.04558) rotate(-48.40873)" style="fill:#a7ffeb"/><ellipse cx="493.89331" cy="70.66399" rx="5.5108" ry="3.98526" transform="translate(113.17883 393.12404) rotate(-48.40651)" style="fill:#a7ffeb"/><ellipse cx="506.91661" cy="83.6355" rx="4.4437" ry="3.98542" transform="translate(65.40984 346.37323) rotate(-40.12535)" style="fill:#a7ffeb"/><ellipse cx="523.20431" cy="65.30201" rx="5.5108" ry="3.98526" transform="translate(127.04213 413.24256) rotate(-48.40652)" style="fill:#a7ffeb"/><ellipse cx="505.46963" cy="48.08035" rx="4.40368" ry="5.51076" transform="translate(133.97327 394.20421) rotate(-48.4087)" style="fill:#a7ffeb"/><ellipse cx="488.65717" cy="34.63793" rx="5.5108" ry="3.98526" transform="translate(138.36166 377.09767) rotate(-48.40652)" style="fill:#a7ffeb"/><ellipse cx="475.63387" cy="21.66643" rx="4.4437" ry="3.98542" transform="translate(97.9841 311.62792) rotate(-40.12542)" style="fill:#a7ffeb"/><ellipse cx="2.30448" cy="324.15815" rx="2.30448" ry="3.18661" style="fill:#a7ffeb"/><ellipse cx="16.58484" cy="324.79834" rx="3.18661" ry="2.54642" style="fill:#a7ffeb"/><ellipse cx="29.01566" cy="324.15815" rx="2.30448" ry="3.18661" style="fill:#a7ffeb"/><ellipse cx="39.62704" cy="324.76879" rx="2.56956" ry="2.30458" transform="translate(-287.46311 317.21211) rotate(-81.71992)" style="fill:#a7ffeb"/><ellipse cx="2.30448" cy="364.86831" rx="2.30448" ry="3.18661" style="fill:#a7ffeb"/><ellipse cx="16.58484" cy="365.50851" rx="3.18661" ry="2.54642" style="fill:#a7ffeb"/><ellipse cx="29.01566" cy="364.86831" rx="2.30448" ry="3.18661" style="fill:#a7ffeb"/><ellipse cx="39.62704" cy="365.47896" rx="2.56956" ry="2.30458" transform="translate(-327.74891 352.05952) rotate(-81.71992)" style="fill:#a7ffeb"/><ellipse cx="2.30448" cy="351.29826" rx="2.30448" ry="3.18661" style="fill:#a7ffeb"/><ellipse cx="16.58484" cy="351.93845" rx="3.18661" ry="2.54642" style="fill:#a7ffeb"/><ellipse cx="29.01566" cy="351.29826" rx="2.30448" ry="3.18661" style="fill:#a7ffeb"/><ellipse cx="39.62704" cy="351.9089" rx="2.56956" ry="2.30458" transform="translate(-314.32031 340.44372) rotate(-81.71992)" style="fill:#a7ffeb"/><ellipse cx="39.63333" cy="337.72821" rx="2.30448" ry="3.18661" style="fill:#a7ffeb"/><ellipse cx="25.35298" cy="337.08801" rx="3.18661" ry="2.54642" style="fill:#a7ffeb"/><ellipse cx="12.92217" cy="337.7282" rx="2.30448" ry="3.18661" style="fill:#a7ffeb"/><ellipse cx="2.31079" cy="337.11756" rx="2.56955" ry="2.30458" transform="translate(-331.62547 290.85569) rotate(-81.72)" style="fill:#a7ffeb"/></svg>