<svg xmlns="http://www.w3.org/2000/svg" viewBox="0 0 61.85399 22.12502"><title>pricing-brands-lines</title><line x1="30.927" y1="11.75184" x2="30.927" y2="0.5" style="fill:none;stroke:#212121;stroke-linecap:round;stroke-linejoin:round"/><line x1="34.59193" y1="12.16075" x2="36.55675" y2="8.53318" style="fill:none;stroke:#212121;stroke-linecap:round;stroke-linejoin:round"/><line x1="37.53916" y1="6.7194" x2="38.52156" y2="4.90561" style="fill:none;stroke:#212121;stroke-linecap:round;stroke-linejoin:round"/><line x1="27.26206" y1="12.16075" x2="25.29724" y2="8.53318" style="fill:none;stroke:#212121;stroke-linecap:round;stroke-linejoin:round"/><line x1="24.31484" y1="6.7194" x2="23.33243" y2="4.90561" style="fill:none;stroke:#212121;stroke-linecap:round;stroke-linejoin:round"/><line x1="51.14266" y1="18.74437" x2="59.09903" y2="10.78812" style="fill:none;stroke:#212121;stroke-linecap:round;stroke-linejoin:round"/><line x1="53.44505" y1="21.62502" x2="57.39952" y2="20.44928" style="fill:none;stroke:#212121;stroke-linecap:round;stroke-linejoin:round"/><line x1="59.37676" y1="19.86141" x2="61.35399" y2="19.27354" style="fill:none;stroke:#212121;stroke-linecap:round;stroke-linejoin:round"/><line x1="48.26198" y1="16.44201" x2="49.43773" y2="12.4876" style="fill:none;stroke:#212121;stroke-linecap:round;stroke-linejoin:round"/><line x1="50.02561" y1="10.51039" x2="50.61349" y2="8.53318" style="fill:none;stroke:#212121;stroke-linecap:round;stroke-linejoin:round"/><line x1="10.71133" y1="18.74437" x2="2.75497" y2="10.78812" style="fill:none;stroke:#212121;stroke-linecap:round;stroke-linejoin:round"/><line x1="8.40894" y1="21.62502" x2="4.45447" y2="20.44928" style="fill:none;stroke:#212121;stroke-linecap:round;stroke-linejoin:round"/><line x1="2.47724" y1="19.86141" x2="0.5" y2="19.27354" style="fill:none;stroke:#212121;stroke-linecap:round;stroke-linejoin:round"/><line x1="13.59202" y1="16.44201" x2="12.41626" y2="12.4876" style="fill:none;stroke:#212121;stroke-linecap:round;stroke-linejoin:round"/><line x1="11.82838" y1="10.51039" x2="11.2405" y2="8.53318" style="fill:none;stroke:#212121;stroke-linecap:round;stroke-linejoin:round"/></svg>