<?xml version="1.0" encoding="UTF-8"?>
<svg width="121px" height="38px" viewBox="0 0 121 38" version="1.1" xmlns="http://www.w3.org/2000/svg" xmlns:xlink="http://www.w3.org/1999/xlink">
    <!-- Generator: Sketch 53.2 (72643) - https://sketchapp.com -->
    <title>Group 3</title>
    <desc>Created with Sketch.</desc>
    <g id="Design" stroke="none" stroke-width="1" fill="none" fill-rule="evenodd">
        <g id="Blog" transform="translate(-850.000000, -446.000000)">
            <g id="Search-Opened" transform="translate(-3.000000, -1.000000)">
                <g id="Group-3" transform="translate(853.000000, 447.000000)">
                    <g id="Group-11">
                        <path d="M17.8468,17.1464 L30.8618,14.0814 C30.8488,14.0284 30.8408,13.9754 30.8278,13.9214 C29.1348,6.7294 21.9308,2.2724 14.7388,3.9664 C7.5468,5.6604 3.0898,12.8634 4.7838,20.0554 C6.4768,27.2474 13.6798,31.7054 20.8718,30.0114 C23.2448,29.4524 25.3178,28.2914 26.9718,26.7304 C22.6008,25.4094 19.0228,21.8854 17.8468,17.1464" id="Fill-1" fill="#A7FFEB"></path>
                        <path d="M15.7101,15.8417 L30.4571,12.3687 C30.4441,12.3087 30.4341,12.2487 30.4191,12.1877 C28.5001,4.0387 20.3371,-1.0123 12.1881,0.9067 C4.0391,2.8267 -1.0119,10.9887 0.9071,19.1387 C2.8261,27.2877 10.9891,32.3387 19.1391,30.4197 C21.8271,29.7857 24.1761,28.4707 26.0511,26.7027 C21.0971,25.2057 17.0431,21.2117 15.7101,15.8417 Z" id="Stroke-3" stroke="#212121" stroke-linecap="round" stroke-linejoin="round"></path>
                        <path d="M23.5514,20.4052 C63.9364,9.7712 63.5574,35.7922 54.0944,37.4142 C44.3574,39.0832 38.1534,10.9982 85.9514,10.3862" id="Stroke-5" stroke="#212121" stroke-linecap="round" stroke-linejoin="round" stroke-dasharray="6"></path>
                    </g>
                    <g id="Group-9" transform="translate(89.000000, 1.000000)">
                        <path d="M28.1331358,14.4111429 C28.1331358,22.370381 21.8358519,28.8222857 14.067358,28.8222857 C6.2988642,28.8222857 0,22.370381 0,14.4111429 C0,6.45190476 6.2988642,0 14.067358,0 C21.8358519,0 28.1331358,6.45190476 28.1331358,14.4111429" id="Fill-1" fill="#FFFFFF"></path>
                        <path d="M27.9075559,16.2480952 C27.9075559,23.0124762 22.5552596,28.4945714 15.952988,28.4945714 C9.3507164,28.4945714 3.9984201,23.0124762 4.00000035,16.2480952 C4.00000035,9.48371429 9.3507164,4 15.952988,4 C22.5552596,4 27.9075559,9.48209524 27.9075559,16.2480952" id="Fill-3" fill="#A7FFEB"></path>
                        <path d="M28.1331358,14.4111429 C28.1331358,22.370381 21.8358519,28.8222857 14.067358,28.8222857 C6.2988642,28.8222857 0,22.370381 0,14.4111429 C0,6.45190476 6.2988642,0 14.067358,0 C21.8358519,0 28.1331358,6.45190476 28.1331358,14.4111429 Z" id="Stroke-5" stroke="#212121" stroke-linecap="round" stroke-linejoin="round"></path>
                        <path d="M31.0466173,32.583619 L23,25" id="Stroke-7" stroke="#212121" stroke-linecap="round" stroke-linejoin="round"></path>
                    </g>
                </g>
            </g>
        </g>
    </g>
</svg>