<svg xmlns="http://www.w3.org/2000/svg" viewBox="0 0 21.71243 27.58402"><title>thumb</title><path d="M21.33623,16.63708a2.09558,2.09558,0,0,0-2.08938-2.0895,2.08936,2.08936,0,1,0,0-4.17871l-4.07149-.00006-4.07155-.00006-5.74874-.00008V2.78446A2.2911,2.2911,0,0,0,3.07072.5L.62383.5V21.83338a5.26574,5.26574,0,0,0,5.25033,5.25037l5.22965.00007h.77846l7.36458.00011a2.09538,2.09538,0,0,0,2.08938-2.08921v-.00012a2.09556,2.09556,0,0,0-2.08938-2.08938,2.08936,2.08936,0,1,0,0-4.17871A2.09551,2.09551,0,0,0,21.33623,16.63708Z" style="fill:#fff"/><line x1="10.98003" y1="10.36877" x2="5.23126" y2="10.36868" style="fill:#ffcdd2"/><path d="M21.33623,16.63708a1.97693,1.97693,0,0,0-1.82588-2.0895,1.97671,1.97671,0,0,0,1.82588-2.08921,1.97693,1.97693,0,0,0-1.82588-2.0895l-3.558,0-3.55809,0-5.02376-.00008V2.78449A2.16137,2.16137,0,0,0,5.37419.50007L3.23588.5V21.83342c0,2.8878,2.06467,5.25032,4.58821,5.25035l4.57013.00007h.68029l6.43584.00009a1.9767,1.9767,0,0,0,1.82588-2.08921v-.00012a1.97689,1.97689,0,0,0-1.82588-2.08938,1.97685,1.97685,0,0,0,1.82588-2.08944,1.97678,1.97678,0,0,0-1.82588-2.08927A1.97685,1.97685,0,0,0,21.33623,16.63708Z" style="fill:#ffcdd2"/><line x1="10.98003" y1="10.36877" x2="5.23126" y2="10.36868" style="fill:#ffcdd2"/><path d="M10.98,10.36882H19.123a2.0894,2.0894,0,0,1,2.0894,2.0894v0a2.08938,2.08938,0,0,1-2.08938,2.08938H10.98a2.08942,2.08942,0,0,1-2.08942-2.08942v0A2.08936,2.08936,0,0,1,10.98,10.36882Z" style="fill:none;stroke:#212121;stroke-linecap:round;stroke-linejoin:round"/><path d="M10.98,14.54761h8.143a2.0894,2.0894,0,0,1,2.0894,2.0894v0a2.08938,2.08938,0,0,1-2.08938,2.08938H10.98a2.0894,2.0894,0,0,1-2.0894-2.0894v0A2.08938,2.08938,0,0,1,10.98,14.54761Z" style="fill:none;stroke:#212121;stroke-linecap:round;stroke-linejoin:round"/><path d="M10.98,18.72639H19.123a2.0894,2.0894,0,0,1,2.0894,2.0894v0a2.08938,2.08938,0,0,1-2.08938,2.08938H10.98a2.08942,2.08942,0,0,1-2.08942-2.08942v0A2.08936,2.08936,0,0,1,10.98,18.72639Z" style="fill:none;stroke:#212121;stroke-linecap:round;stroke-linejoin:round"/><path d="M10.98,22.90518h8.143a2.0894,2.0894,0,0,1,2.0894,2.0894v0A2.08938,2.08938,0,0,1,19.12306,27.084H10.98a2.0894,2.0894,0,0,1-2.0894-2.0894v0A2.08938,2.08938,0,0,1,10.98,22.90518Z" style="fill:none;stroke:#212121;stroke-linecap:round;stroke-linejoin:round"/><line x1="10.98003" y1="10.36877" x2="5.23126" y2="10.36868" style="fill:none;stroke:#212121;stroke-linecap:round;stroke-linejoin:round"/><path d="M11.75847,27.08391l-6.00814-.00008A5.26585,5.26585,0,0,1,.5,21.83346V.5L2.9469.5A2.29109,2.29109,0,0,1,5.23126,2.7844v8.84067" style="fill:none;stroke:#212121;stroke-linecap:round;stroke-linejoin:round"/></svg>